# xmcd
#
# Track frame offsets:
#   150
#   12128
#   24339
#   38053
#   51612
#   59260
#   74661
#   92183
#   102820
#   116029
#   127180
#   137715
#   150960
#   166692
#   175589
#
# Disc length: 2564 seconds
#
# Revision: 0
# Processed by: cddbd v1.5.2PL0 Copyright (c) Steve Scherf et al.
# Submitted via: GXTranscoder 2.0.1939
#
DISCID=c40a020f
DTITLE=Ursprung Buam - Grosse Erfolge
DYEAR=1900
DGENRE=Folk
TTITLE0=Die Ursprung Buam geigen auf
TTITLE1=Gemma gemma-Boarischer
TTITLE2=Don Camillo und Pepone
TTITLE3=s wird schon werden
TTITLE4=Der Schneidige
TTITLE5=Bergesruf
TTITLE6=A de Schnea Lahner
TTITLE7=Ein Abend der Volksmusik
TTITLE8=Lieserl kimm her
TTITLE9=Der Teufelsgeiger Bua
TTITLE10=Kohlstattel Boarischer
TTITLE11=Heimliche Liebe
TTITLE12=A Steirer Madel, a Tiroler Bua
TTITLE13=Geigenländler
TTITLE14=Schia langsam
EXTD=
EXTT0=
EXTT1=
EXTT2=
EXTT3=
EXTT4=
EXTT5=
EXTT6=
EXTT7=
EXTT8=
EXTT9=
EXTT10=
EXTT11=
EXTT12=
EXTT13=
EXTT14=
PLAYORDER=
